<svg width="745" height="680" viewBox="0 0 748 680" fill="none" xmlns="http://www.w3.org/2000/svg">
<path d="M585 194.818H590V190.642L585.89 189.898L585 194.818ZM585 460.744L588.544 464.271L590 462.808V460.744H585ZM374 672.731L370.456 676.259L374 679.819L377.544 676.259L374 672.731ZM163 460.744H158V462.808L159.456 464.271L163 460.744ZM163 194.818L162.11 189.898L158 190.642V194.818H163ZM301.622 169.731H306.622V163.745L300.732 164.811L301.622 169.731ZM301.622 256.282L302.391 261.223L306.622 260.564V256.282H301.622ZM245.191 265.063L244.423 260.123L240.191 260.781V265.063H245.191ZM245.191 424.367H240.191V426.42L241.633 427.88L245.191 424.367ZM374 554.821L370.442 558.334L374 561.938L377.558 558.334L374 554.821ZM502.809 424.367L506.366 427.88L507.809 426.42V424.367H502.809ZM502.809 265.063H507.809V260.781L503.577 260.123L502.809 265.063ZM446.378 256.282H441.378V260.564L445.609 261.223L446.378 256.282ZM446.378 169.731L447.268 164.811L441.378 163.745V169.731H446.378ZM477.623 5.24316L477.971 0.255289L474.311 -7.00951e-05L472.969 3.41489L477.623 5.24316ZM743 63.373H748V60.16L745.077 58.8251L743 63.373ZM743 134.14L747.069 137.046L748 135.742V134.14H743ZM654.541 257.982H649.541V273.585L658.61 260.889L654.541 257.982ZM654.541 139.195H659.541V135.07L655.491 134.286L654.541 139.195ZM419.493 93.7021L420.443 88.7933L414.535 87.6496L414.493 93.6678L419.493 93.7021ZM416.966 461.438L420.501 464.974L421.952 463.524L421.966 461.473L416.966 461.438ZM374 504.404L370.464 507.94L374 511.475L377.536 507.94L374 504.404ZM331.034 461.438L326.034 461.473L326.048 463.524L327.499 464.974L331.034 461.438ZM328.507 93.7021L333.507 93.6678L333.465 87.6496L327.557 88.7933L328.507 93.7021ZM93.459 139.195L92.5089 134.286L88.459 135.07V139.195H93.459ZM93.459 257.982L89.3903 260.889L98.459 273.585V257.982H93.459ZM5 134.14H0V135.742L0.931331 137.046L5 134.14ZM5 63.373L2.92253 58.8251L0 60.16V63.373H5ZM270.377 5.24316L275.031 3.41489L273.689 -7.00951e-05L270.029 0.255289L270.377 5.24316ZM374 74.7461L374.083 69.7468L374 69.7454L373.917 69.7468L374 74.7461ZM585 194.818H580V460.744H585H590V194.818H585ZM585 460.744L581.456 457.217L370.456 669.204L374 672.731L377.544 676.259L588.544 464.271L585 460.744ZM374 672.731L377.544 669.204L166.544 457.217L163 460.744L159.456 464.271L370.456 676.259L374 672.731ZM163 460.744H168V194.818H163H158V460.744H163ZM163 194.818L163.89 199.738L302.512 174.652L301.622 169.731L300.732 164.811L162.11 189.898L163 194.818ZM301.622 169.731H296.622V256.282H301.622H306.622V169.731H301.622ZM301.622 256.282L300.853 251.342L244.423 260.123L245.191 265.063L245.96 270.004L302.391 261.223L301.622 256.282ZM245.191 265.063H240.191V424.367H245.191H250.191V265.063H245.191ZM245.191 424.367L241.633 427.88L370.442 558.334L374 554.821L377.558 551.308L248.749 420.854L245.191 424.367ZM374 554.821L377.558 558.334L506.366 427.88L502.809 424.367L499.251 420.854L370.442 551.308L374 554.821ZM502.809 424.367H507.809V265.063H502.809H497.809V424.367H502.809ZM502.809 265.063L503.577 260.123L447.147 251.342L446.378 256.282L445.609 261.223L502.04 270.004L502.809 265.063ZM446.378 256.282H451.378V169.731H446.378H441.378V256.282H446.378ZM446.378 169.731L445.488 174.652L584.11 199.738L585 194.818L585.89 189.898L447.268 164.811L446.378 169.731ZM477.623 5.24316L477.275 10.231C531.498 14.014 659.893 30.9076 740.923 67.921L743 63.373L745.077 58.8251C662.332 21.0276 532.426 4.0545 477.971 0.255289L477.623 5.24316ZM743 63.373H738V134.14H743H748V63.373H743ZM743 134.14L738.931 131.233L650.472 255.076L654.541 257.982L658.61 260.889L747.069 137.046L743 134.14ZM654.541 257.982H659.541V139.195H654.541H649.541V257.982H654.541ZM654.541 139.195L655.491 134.286L420.443 88.7933L419.493 93.7021L418.543 98.611L653.591 144.104L654.541 139.195ZM419.493 93.7021L414.493 93.6678L411.966 461.404L416.966 461.438L421.966 461.473L424.493 93.7365L419.493 93.7021ZM416.966 461.438L413.43 457.903L370.464 500.869L374 504.404L377.536 507.94L420.501 464.974L416.966 461.438ZM374 504.404L377.536 500.869L334.57 457.903L331.034 461.438L327.499 464.974L370.464 507.94L374 504.404ZM331.034 461.438L336.034 461.404L333.507 93.6678L328.507 93.7021L323.507 93.7365L326.034 461.473L331.034 461.438ZM328.507 93.7021L327.557 88.7933L92.5089 134.286L93.459 139.195L94.4091 144.104L329.457 98.611L328.507 93.7021ZM93.459 139.195H88.459V257.982H93.459H98.459V139.195H93.459ZM93.459 257.982L97.5277 255.076L9.06867 131.233L5 134.14L0.931331 137.046L89.3903 260.889L93.459 257.982ZM5 134.14H10V63.373H5H0V134.14H5ZM5 63.373L7.07747 67.921C88.107 30.9076 216.502 14.014 270.725 10.231L270.377 5.24316L270.029 0.255289C215.574 4.0545 85.6684 21.0276 2.92253 58.8251L5 63.373ZM270.377 5.24316L265.723 7.07144C289.031 66.3999 347.7 80.1851 374.083 79.7454L374 74.7461L373.917 69.7468C349.752 70.1495 296.205 57.3132 275.031 3.41489L270.377 5.24316ZM374 74.7461L373.917 79.7454C400.3 80.1851 458.969 66.3999 482.277 7.07144L477.623 5.24316L472.969 3.41489C451.795 57.3132 398.248 70.1495 374.083 69.7468L374 74.7461Z" fill="black"/>
</svg>
