<svg width="878" height="878" viewBox="0 0 878 878" fill="none" xmlns="http://www.w3.org/2000/svg">
    <rect width="878" height="878" rx="92" fill="white"/>
    <path d="M363.178 352.684L305.048 361.529V522.019L437.735 653.442L571.688 522.019V485.371H656.355V558.666L437.736 772.23V772.231L220.38 558.666V290.762L363.178 265.488V352.684ZM542.623 105C596.962 108.791 726.112 125.724 808 163.13V233.896L719.541 357.739V238.952L484.493 193.459L481.966 561.195L439 604.161L396.034 561.195L393.507 193.459L158.459 238.952V357.739L70 233.896V163.13C151.888 125.724 281.038 108.791 335.377 105C357.618 161.613 413.726 174.924 439 174.503C464.274 174.924 520.382 161.613 542.623 105ZM656.355 290.762V399.439H571.688V361.529L513.558 352.684V265.488L656.355 290.762Z"
          fill="#1C1D1B"/>
</svg>
