<svg width="738" height="668" viewBox="0 0 738 668" fill="none" xmlns="http://www.w3.org/2000/svg">
<path d="M293.178 247.684L235.048 256.529V417.019L367.735 548.442L501.688 417.019V380.371H586.355V453.666L367.736 667.23V667.231L150.38 453.666V185.762L293.178 160.488V247.684ZM472.623 0C526.962 3.7911 656.112 20.7244 738 58.1299V128.896L649.541 252.739V133.952L414.493 88.459L411.966 456.195L369 499.161L326.034 456.195L323.507 88.459L88.459 133.952V252.739L0 128.896V58.1299C81.8877 20.7244 211.038 3.7911 265.377 0C287.618 56.6134 343.726 69.9242 369 69.5029C394.274 69.9242 450.382 56.6134 472.623 0ZM586.355 185.762V294.439H501.688V256.529L443.558 247.684V160.488L586.355 185.762Z" fill="#f0f2ef"/>
</svg>
